<?xml version="1.0" encoding="UTF-8"?>
<svg version="1.1" viewBox="0 0 2000 2000" width="1280" height="1280" xmlns="http://www.w3.org/2000/svg">
<path transform="translate(0)" d="m0 0h2e3v2e3h-2e3z"/>
<path transform="translate(991,201)" d="m0 0h47l25 2 19 4 12 6 2 7-5 26-8 16-7 8-8 7-10 6h-2l3 5 6 9 3 7 1 8-2 8-6 10-8 6v14l2 32v10l-1 1-14 1v15l6 1 1 6 129 1-3 5-10 2-11 2-9 5-6 10-8 18-6 4-9 1h-45l-2 6-9 10-6 9-1 2v7l16 16 4 8 1 3v12l-4 12-7 9-10 8-5 3-2 5-1 7v29l2 13 10 16 4 12v8l-3 10-6 9-6 6-1 7 3 9 11-13 7-3 7-2 6-10 1-1h7l7 4 5 6-1 6-4 7v14l-4 7-18 24 3 10 1 10-3 12-6 10-4 5-6 6v14l3 3 1 11 6 4v12l7 1 1 9 9 1 1 3-1 29-7 1h-9v22h-121l-1-1v-21h-14l-1-1v-31l1-1 8-1 3-9 6-2v-12l6-1v-11l4-5 1-9-1-6-7-8-6-9-4-14v-8l3-10 6-10 1-3-5-2-2-2-9 1-8-7-18-18-8-3-2-3-1-5h-11l-7-2-5-6-2-12-8-6-13-10-18-14-5-6-1-2v-9l1-3h-14l-8-4-8-9-3-7v-4l-10 3h-8l-8-4-10-10-6-12-1-3v-13l-16 7-14 9-10 9-9 9-9 13-10 17-7 16-7 21-6 28-4 26-2 29v44l3 37 5 36 7 34 8 29 8 22 12 25 15 26 12 19 8 12 14 20 12 16 14 18 8 10 13 16 9 11 11 13 12 14 9 11 12 13 11 12 7 8 12 12 7 8 1 3h2l4-16 8-24 8-18 8-12 7-7 9-11 7-10 6-12 3-13v-91l-6-9v-43l2-1h119l1-2v47l-5 7-4 2v92l3 12 8 15 11 13 11 12 10 17 9 24 6 22 5 30 3 27 3 49 2 16 64 17 50 10 20 6 15 8 7 7 4 10v15l-4 11-6 10-10 10-13 8-13 6-20 6-22 4-33 4-29 2-97 2h-53l-32-2-36-4-36-6-29-6-15-4h-5l-7 6-15 5-10-1-12-5-6-5-7-10-3-6v-4l-9 1-11-3-16-8-5 1-15-6-16-3-8-4-2-2-7 1-13-5-2-4-11-1-15-4-3-5-11-3-9-6-5-6-3-8v-10l-16-8-2-2v-6l4-6 4-2h9l7 3h5l6-4 7-2h13l20 3 8 4 4 5 14 1 13 5 12 5 16 5 15 7 15 2 13 4 6 4 2 5 8-4 6-2h13l11 4 11 9 8 16 2 9v4l11 3 30 7 47 8 32 3 18 1h49l63-4 41-4 45-6 23-4 25-7 11-6 3-4-1-3-8-3-33-5-24-6-24-8-1 1 2 6v6l-4 3-30 8-28 4-25 2-20 1h-93l-33-2-29-3-20-4-21-6-4-3 1-11 5-5 8-4 7-9 5-14 3-12 3-31 2-33v-12l-11-9-12-9-14-12-13-12-8-7-13-12-15-15-7-8-9-10-9-11-12-14-10-13-13-17-14-21-12-19-9-15-12-22-13-26-11-25-13-34-10-31-9-35-7-35-5-34-2-23v-40l4-36 5-26 7-26 9-27 8-18 11-21 12-17 10-11 4-5 14-10 14-7 16-5 11-2h20l14 1 3-1h17l12 4 8 7 4 8v20l12 3 9 6 5 7 1 3v10l7-2 6 1 8 6 9 11 11 13 10 13 5-1h13l6 4 3 8v11l7 3 2 4-1 7 12 13 10 10 1 2 1 13 5 5 4-10 1-10 2-2v-11l-8-10-4-8-1-4v-13l4-11 8-12 3-16v-30l-2-9-5-5-6-4-9-9-5-10-2-7v-11l4-9 9-10 8-7v-9l-10-14-9-11-41-1-7-2-4-5-6-15-7-11-12-6-14-1-5-4v-3l129-1v-6l6-1 1-16h-15l-1-4 4-48v-4l-8-6-6-8-3-8v-8l3-9 8-11h2l-1-4-12-6-10-9-7-11-5-12-5-24 1-6 4-4 9-4 14-3 15-2z" fill="#FCFCFC"/>
<path transform="translate(991,201)" d="m0 0h47l25 2 19 4 12 6 2 7-5 26-8 16-7 8-8 7-10 6h-2l3 5 6 9 3 7 1 8-2 8-6 10-8 6v14l2 32v10l-1 1-14 1v15l6 1 1 6 129 1-3 5-10 2-11 2-9 5-6 10-8 18-6 4-9 1h-45l-2 6-9 10-6 9-1 2v7l16 16 4 8 1 3v12l-4 12-7 9-10 8-5 3-2 5-1 7v29l2 13 10 16 4 12v8l-3 10-6 9-6 6-1 7 3 9 11-13 7-3 7-2 6-10 1-1h7l7 4 5 6-1 6-4 7v14l-4 7-18 24 3 10 1 10-3 12-6 10-4 5-6 6v14l3 3 1 11 6 4v12l7 1 1 9 9 1 1 3-1 29-7 1h-9v22h-121l-1-1v-21h-14l-1-1v-31l1-1 8-1 3-9 6-2v-12l6-1v-11l4-5 1-9-1-6-7-8-6-9-4-14v-8l3-10 6-10 1-3-5-2-2-2-9 1-8-7-18-18-8-3-2-3-1-5h-11l-7-2-5-6-2-12-8-6-13-10-18-14-5-6-1-2v-9l1-3h-14l-8-4-8-9-3-7v-4l-10 3h-8l-8-4-10-10-6-12-1-3v-12l4-8 8-9 11-9 8-4h17l12 4 8 7 4 8v20l12 3 9 6 5 7 1 3v10l7-2 6 1 8 6 9 11 11 13 10 13 5-1h13l6 4 3 8v11l7 3 2 4-1 7 12 13 10 10 1 2 1 13 5 5 4-10 1-10 2-2v-11l-8-10-4-8-1-4v-13l4-11 8-12 3-16v-30l-2-9-5-5-6-4-9-9-5-10-2-7v-11l4-9 9-10 8-7v-9l-10-14-9-11-41-1-7-2-4-5-6-15-7-11-12-6-14-1-5-4v-3l129-1v-6l6-1 1-16h-15l-1-4 4-48v-4l-8-6-6-8-3-8v-8l3-9 8-11h2l-1-4-12-6-10-9-7-11-5-12-5-24 1-6 4-4 9-4 14-3 15-2z" fill="#FCFCFC"/>
<path transform="translate(1494,1300)" d="m0 0 3 1 10 16 10 15 14 22 15 23 26 40 16 25 11 17 1 3-16 17-7 8-4 1-17-8-30-13-43-19-18-8 21 21 8 7 16 16 2 1v2l4 2 13 13-2 5-10 14-11 15-3 4-4-2-28-30-9-10-14-15-12-13-14-15-7-8-12-13-2-4h-2l-3-3 13 23 12 25 8 21 5 18 2 12v24l-4 16-6 11-8 10-8 7-16 9-16 5-5 1h-18l-12-3-13-7-10-8-9-9-11-15-9-15-11-22-13-34-7-21v-3l39-9 10-2 3 9 9 31 8 21 7 14 12 12 11 6 4 1h7l9-4 5-4 4-7 2-6v-15l-4-15-8-18-11-20-12-18-6-8 1-5 12-14 11-14 4-6 4 2 3 4h2l8-10 9-10 9-11 5 1 30 13 43 19 27 12 2 1-2-4-14-17-11-14-14-17-11-14-11-13-1-3 7-8z" fill="#FCFCFC"/>
<path transform="translate(638,1318)" d="m0 0h13l20 3 8 4 4 5 14 1 13 5 12 5 16 5 15 7 15 2 13 4 6 4 2 5 8-4 6-2h13l11 4 11 9 8 16 2 9v4l11 3 30 7 47 8 32 3 18 1h49l63-4 41-4 45-6 23-4 25-7 11-6 3-4-1-3-8-3-33-5-24-6-24-8-6-1-8-4-7-7-5-10-3-11v-7l42 11 32 8 41 8 20 6 15 8 7 7 4 10v15l-4 11-6 10-10 10-13 8-13 6-20 6-22 4-33 4-29 2-97 2h-53l-32-2-36-4-36-6-29-6-15-4h-5l-7 6-15 5-10-1-12-5-6-5-7-10-3-6v-4l-9 1-11-3-16-8-5 1-15-6-16-3-8-4-2-2-7 1-13-5-2-4-11-1-15-4-3-5-11-3-9-6-5-6-3-8v-10l-16-8-2-2v-6l4-6 4-2h9l7 3h5l6-4z" fill="#DADADA"/>
<path transform="translate(746,528)" d="m0 0h20l13 2-5 4-11 9-8 10-2 4-13 5-14 8-10 8-13 13-9 13-10 17-7 16-7 21-6 28-4 26-2 29v44l3 37 5 36 7 34 8 29 8 22 12 25 15 26 12 19 8 12 14 20 12 16 14 18 8 10 13 16 9 11 11 13 12 14 9 11 12 13 11 12 7 8 12 12 7 8 1 3 3 1-2 9-4 23v3l-1 2-11-9-12-9-14-12-13-12-8-7-13-12-15-15-7-8-9-10-9-11-12-14-10-13-13-17-14-21-12-19-9-15-12-22-13-26-11-25-13-34-10-31-9-35-7-35-5-34-2-23v-40l4-36 5-26 7-26 9-27 8-18 11-21 12-17 10-11 4-5 14-10 14-7 16-5z" fill="#DADADA"/>
<path transform="translate(991,201)" d="m0 0h47l25 2 19 4 12 6 2 7-5 26-8 16-7 8-8 7-10 6h-2l3 5 6 9 3 7 1 8-2 8-6 10-8 6v14l2 32v10l-1 1-14 1v15l6 1 1 6 53 1v1h-242v-1l123-1v-6l6-1 1-16h-15l-1-4 4-48v-4l-8-6-6-8-3-8v-8l3-9 8-11h2l-1-4-12-6-10-9-7-11-5-12-5-24 1-6 4-4 9-4 14-3 15-2z" fill="#FBFBFB"/>
<path transform="translate(551,1351)" d="m0 0 13 1 13 4 10 7 8 8 7 14 3 14v18l-4 20-6 15-8 16-8 12-12 16-12 13-16 12-14 7-14 4-7 1h-14l-10-2-12-5-11-8-8-9-7-14-4-16v-16l4-18 5-12 7-13 10-14 12-14 15-15 12-9 14-8 12-5 13-3z" fill="#FBFBFB"/>
<path transform="translate(437,1257)" d="m0 0h25l11 3 10 5 10 9 7 10 4 11 1 7v13l-3 16-5 14-9 16-11 14-12 13-10 10-19 14-15 8-15 5-11 2h-14l-15-3-16-8-7-6-9-12-5-11-3-14v-11l3-16 5-13 8-13 11-14 10-10 14-11 14-10 14-8 15-6z" fill="#FCFCFC"/>
<path transform="translate(1194,1478)" d="m0 0h20l12 4 12 7 11 9 8 8 11 16 8 16 8 20 6 23 2 13v19l-2 12-6 16-8 13-10 10-12 7-13 4h-22l-13-4-11-6-11-9-10-11-8-13-7-16-6-20-4-20-1-8v-28l3-15 6-16 6-10 10-11 10-6z" fill="#FCFCFC"/>
<path transform="translate(385,1117)" d="m0 0 4 1 12 30 2 4-1 4-39 20-22 12-6 3h-2l11 27v2l6-3 28-17 16-9 17-10 4 2 7 7 2 1v2l4 2 12 12-1 4-12 9-28 22-13 10-15 12-26 20-15 12-13 10-18 14-4 2-8-10-13-18-12-17-3-4v-2l19-11 25-15 9-6-3-9-9-22v-2l-52 25-9 4-2-6-7-38 1-4 66-30 36-16 37-17 14-6z" fill="#FCFCFC"/>
<path transform="translate(879,1495)" d="m0 0 20 4 19 5 1 4-9 62-2 14 9 1 21 5 1-16 5-54 1-7 6-2 30-6 4 1 7 180-1 4h-61l-1-3 5-55 1-5-18-4-17-4-5 28-6 35-3 3-16-8-23-11-2-2 1-9 16-79 16-80z" fill="#FCFCFC"/>
<path transform="translate(633,1397)" d="m0 0 11 7 16 10 1 4-17 39-11 25-3 9 3-1v-2l13-13 8-7 39-39 4 2 17 13 12 9 11 8v4l-24 15-42 26-24 15 2 10 17 55 1 5-8 2-38 6-5-1v-77l-12 22-10 19-6 12-4 1-36-11-2-1 2-6 10-19 12-23 9-16 8-16 14-27 12-22 18-35z" fill="#FBFBFB"/>
<path transform="translate(1569,1229)" d="m0 0h8l4 34v8l-12 6-7 8-4 10v11l3 10 8 11 8 9 14 11 14 9 10 4 8 1 10-2 8-5 7-8 7-14 1-9-3-11-2-4-3 1-10 16-4 3-11-10-11-9-1-4 10-15 21-31 4-1 10 8 20 15 18 14 16 12 9 7-2 10-6 27-2 2-11-8-7-6-2 1-5 21-6 10-12 12-14 8-9 4-12 3h-17l-16-5-17-9-16-12-13-12-9-9-9-12-8-14-5-14-3-17v-11l3-15 7-14 8-10 11-8 12-5z" fill="#FBFBFB"/>
<path transform="translate(785,1470)" d="m0 0 7 1 24 5 2 2 1 16 5 161-2 4-36 5h-8v-9l3-35 1-3-45-5h-4l-10 21-8 14-11-7-19-13-4-3 2-5 8-11 14-21 13-19 17-25 13-19 19-28 16-24z" fill="#FBFBFB"/>
<path transform="translate(958,788)" d="m0 0h97v4 14l3 3 1 11 6 4v12l7 1 1 9 9 1 1 3-1 29-7 1h-9v22h-121l-1-1v-21h-14l-1-1v-31l1-1 8-1 3-9 6-2v-12l6-1v-11l4-5 1-9-1-8z" fill="#DADADA"/>
<path transform="translate(1619,1115)" d="m0 0 6 1 29 14 9 5-1 4-11 27-10 24-1 4 6 2 19 10 3 1 1-6 10-25 4-1 28 14-1 6-10 24-1 4 6 2 24 13 1-5 12-26 10-23 5-1 33 10 3 3-50 100-5-1-27-15-22-13-26-15-19-11-43-25-13-8 1-5 17-50z" fill="#FBFBFB"/>
<path transform="translate(783,528)" d="m0 0h17l12 4 8 7 4 8v20l12 3 9 6 5 7 1 3v10l7-2 6 1 8 6 9 11 11 13 10 13 5-1h13l6 4 3 8v11l7 3 2 4-1 7 12 13 10 10 1 2 1 13 3 3v5l-5 2v-5h-2l-5 5v4 2l-7-1-2-2-9 1-8-7-18-18-8-3-2-3-1-5h-11l-7-2-5-6-2-12-8-6-13-10-18-14-5-6-1-2v-9l1-3h-14l-8-4-8-9-3-7v-4l-10 3h-8l-8-4-10-10-6-12-1-3v-12l4-8 8-9 11-9z" fill="#FCFCFC"/>
<path transform="translate(638,1318)" d="m0 0h13l20 3 8 4 4 5 14 1 13 5 12 5 16 5 15 7 15 2 13 4 6 4 2 5 8-4 6-2h13l11 4 11 9 8 16v7l-3-4-5-5v-2l-4-2-10-6h-9l-8 2-6 4-7 11-2 6-1 13 1 9 6 11 9 8 13 1 6 1v2l-13 4-10-1-12-5-6-5-7-10-3-6v-4l-9 1-11-3-16-8-5 1-15-6-16-3-8-4-2-2-7 1-13-5-2-4-11-1-15-4-3-5-11-3-9-6-5-6-3-8v-10l-16-8-2-2v-6l4-6 4-2h9l7 3h5l6-4z" fill="#FCFCFC"/>
<path transform="translate(1095,1499)" d="m0 0h9l1 2 2 114v32l35-6h7l-1 21-2 27-2 1-43 3-16 1h-14l-1-2-6-103-4-72v-15l1-1z" fill="#FBFBFB"/>
<path transform="translate(1032,998)" d="m0 0h14l2 1 1 84 2 18 4 13 6 11 7 9 3 3v2l4 2 8 8 7 10 6 12 5 16 5 22 6 39 2 23 2 38 3 25 4 15 4 8v3l-12 6-15 4-20 3-21 2h-17l4-2 18-6 12-6 10-7 5-8 2-11v-29l-2-30-4-34-6-29-5-16-6-12-3-3v-2l-4-2-8-5-7-9-5-10-6-21-4-26-2-25v-51z"/>
<path transform="translate(429,1300)" d="m0 0h16l9 4 5 4 4 6 2 7v9l-3 12-7 12-7 8-14 11-14 8-11 3h-11l-10-4-6-5-5-10-1-10 3-12 7-12 12-13 9-8 12-7z"/>
<path transform="translate(536,1397)" d="m0 0h12l8 3 7 6 4 7 1 4v16l-4 13-7 12-12 13-10 9-12 6-4 1h-13l-10-5-7-8-3-9v-11l4-13 7-13 9-12 9-9 9-6z"/>
<path transform="translate(1209,1524)" d="m0 0h11l9 4 8 6 8 10 6 13 4 17 1 7v14l-4 13-4 6-7 6-8 3h-10l-14-7-8-9-8-15-6-19-1-7v-10l2-10 4-9 7-8 7-4z"/>
<path transform="translate(944,1130)" d="m0 0 5 1 2 4-7 14-7 21-7 30-4 26-1 23-3 19-5 16-8 16-7 8h-6l-3-6-1-5v-28l3-33 5-24 7-24 9-21 8-15 11-14 7-7z"/>
<path transform="translate(1078,671)" d="m0 0h7l7 4 5 6-1 6-4 7v14l-4 7-18 24v3l-4 1-8 5-7-1-9-5-5-4-5-9v-7l11-18 2-4 5-5 8-9 13-4 6-10z" fill="#DADADA"/>
<path transform="translate(945,880)" d="m0 0h120l1 1v21h-121l-1-1v-20z" fill="#FBFBFB"/>
<path transform="translate(783,528)" d="m0 0h17l12 4 8 7 2 5h-2v7l-5-3h-14l-14 7v2l-5 5-6 9-1 3v10l3 6 7 4 1 2h5l-3 2-3 1h-8l-8-4-10-10-6-12-1-3v-12l4-8 8-9 11-9z" fill="#FBFBFB"/>
<path transform="translate(1064,925)" d="m0 0h2v12h-122v-11z" fill="#F6F6F6"/>
<path transform="translate(1065,908)" d="m0 0h1v10h-121l-1-1v-8z" fill="#F5F5F5"/>
<path transform="translate(1045,517)" d="m0 0 7 1 7 5 2 8v15l-4 8-9 9-8 2h-22v-2l18-9 2-6 3-12 1-13z" fill="#DADADA"/>
<path transform="translate(787,1523)" d="m0 0h1l-1 21-4 40-14-1-14-2-1-2 14-24 12-21 6-10z"/>
<path transform="translate(1039,395)" d="m0 0h1v14l6 1 1 6 53 1v1h-242v-1l123-1v-6l6-1 1-2 51 1z" fill="#eee"/>
<path transform="translate(989,394)" d="m0 0 50 1v13l-4 1-47-1z" fill="#FDFDFD"/>
<path transform="translate(1029,631)" d="m0 0 12 3 5 6 2 4 1 13-3 11-7 10-3 2h-7l1-8 3-9v-14l-4-12-1-5z" fill="#DADADA"/>
<path transform="translate(1033,217)" d="m0 0h21l18 3 12 4 1 2v13l-3 10-7 11-11 10-5 3-2-1 9-10 9-14 1-2v-9l-4-5-14-7-17-5-8-2z"/>
<path transform="translate(803,538)" d="m0 0h8l3 2 4-1 2 4v8l-5-3h-14l-14 7v2l-5 5-6 9-1 3v10l3 6 7 4 1 2h5l-3 2-3 1h-8l-5-2 3-3-3-2-1-8h-2l-2-6 2-8 7-11 10-11 11-7z" fill="#DADADA"/>
<path transform="translate(1030,285)" d="m0 0h16l8 7 6 9 1 3v9l-6 12-2 3-2-1 4-13-1-7-8-6-23-10-4-3v-2z"/>
<path transform="translate(1058,766)" d="m0 0h3l-2 5-8 7-7 3-17 2h-22l-2-2 33-7 15-5z" fill="#DADADA"/>
<path transform="translate(981,413)" d="m0 0 1 2h20l98 2v1h-242v-1l123-1z" fill="#DADADA"/>
<path transform="translate(1010,341)" d="m0 0h33l2 5 2 11v11h-1l-3-11-5-4-10-5-11-4-7-2z"/>
<path transform="translate(1031,580)" d="m0 0 3 1-1 4v15l1 18v3l-6-2-3-8v-15l5-15z" fill="#DADADA"/>
<path transform="translate(1039,395)" d="m0 0h1v14l4 1v2l-6 1v1h-7v-1l-50-1v-2l6-1 1-2 51 1z" fill="#D4D4D4"/>
<path transform="translate(972,217)" d="m0 0h26l-1 2-14 3-36 4-4-1 5-3 16-4z"/>
<path transform="translate(957,716)" d="m0 0 3 1-1 5h2l1-3 1 1 2-3h2l1 8-7 7-5 2-6-2v-3l-3-1 3-1 2 1-2-6 5-3z" fill="#DADADA"/>
<path transform="translate(654,931)" d="m0 0 2 2 6 17 8 21 6 13 9 20 2 6h-2l-13-27-12-30-6-16z" fill="#eee"/>
<path transform="translate(982,411)" d="m0 0 46 1v1l-11 1h5l1 2h-37l-4-1-1-3z" fill="#FDFDFD"/>
<path transform="translate(669,971)" d="m0 0 2 1 11 26 5 10v2h-2l-13-27-3-7z" fill="#F0F0F0"/>
<path transform="translate(679,566)" d="m0 0h2l-2 5-4 6h-2v3h-2v3h-2v2h-2l-1 4-4 5 1-5 10-16z" fill="#EFEFEF"/>
<path transform="translate(1283,1378)" d="m0 0h3l2 6v15l-2 1-2-12z" fill="#F1F1F1"/>
<path transform="translate(691,1019)" d="m0 0 3 3 5 9v2l2 1 4 8v2h-2l-12-22z" fill="#F0F0F0"/>
<path transform="translate(645,902)" d="m0 0 2 3 6 21v2h-2l-6-19z" fill="#eee"/>
<path transform="translate(698,547)" d="m0 0 2 1-10 9-6 7h-2l2-4 7-8z" fill="#eee"/>
<path transform="translate(679,566)" d="m0 0h2l-2 5-4 6h-3l2-5z" fill="#F3F3F3"/>
<path transform="translate(706,1046)" d="m0 0 4 5 7 11v2h-2l-9-15z" fill="#eee"/>
</svg>
